<?xml version="1.0" encoding="utf-8"?>
<!-- Generator: Adobe Illustrator 24.1.2, SVG Export Plug-In . SVG Version: 6.00 Build 0)  -->
<svg version="1.1" id="Layer_1" xmlns="http://www.w3.org/2000/svg" xmlns:xlink="http://www.w3.org/1999/xlink" x="0px" y="0px"
	 viewBox="0 0 20.6 20.6" style="enable-background:new 0 0 20.6 20.6;" xml:space="preserve">
<style type="text/css">
	.st0{fill:#ED1C24;}
	.st1{fill:#FFA500;}
</style>
<g transform="rotate(0 50 50)">
	<path class="st0" d="M10.3,5L10.3,5c1,0,1.8,0.2,1.8,0.5l0,0c0,0.3-0.8,0.5-1.8,0.5l0,0c-1,0-1.8-0.2-1.8-0.5l0,0
		C8.5,5.3,9.3,5,10.3,5z	">
<animate  accumulate="none" additive="replace" attributeName="opacity" begin="-1.3043478260869565s" calcMode="linear" dur="1.4492753623188404s" fill="remove" keyTimes="0;1" repeatCount="indefinite" restart="always" values="1;0">
			</animate>
	</path>
</g>
<g transform="rotate(36 50 50)">
	<path class="st1" d="M-5.5,36L-5.5,36c1,0,1.8,0.2,1.8,0.5l0,0c0,0.3-0.8,0.5-1.8,0.5l0,0c-1,0-1.8-0.2-1.8-0.5l0,0
		C-7.2,36.2-6.4,36-5.5,36z	">
<animate  accumulate="none" additive="replace" attributeName="opacity" begin="-1.1594202898550725s" calcMode="linear" dur="1.4492753623188404s" fill="remove" keyTimes="0;1" repeatCount="indefinite" restart="always" values="1;0">
			</animate>
	</path>
</g>
<g transform="rotate(72 50 50)">
	<path class="st0" d="M0,70.2L0,70.2c1,0,1.8,0.2,1.8,0.5l0,0c0,0.3-0.8,0.5-1.8,0.5l0,0c-1,0-1.8-0.2-1.8-0.5l0,0
		C-1.8,70.5-1,70.2,0,70.2z	">
<animate  accumulate="none" additive="replace" attributeName="opacity" begin="-1.0144927536231882s" calcMode="linear" dur="1.4492753623188404s" fill="remove" keyTimes="0;1" repeatCount="indefinite" restart="always" values="1;0">
			</animate>
	</path>
</g>
<g transform="rotate(108 50 50)">
	<path class="st1" d="M24.5,94.8L24.5,94.8c1,0,1.8,0.2,1.8,0.5l0,0c0,0.3-0.8,0.5-1.8,0.5l0,0c-1,0-1.8-0.2-1.8-0.5l0,0
		C22.8,95,23.5,94.8,24.5,94.8z	">
<animate  accumulate="none" additive="replace" attributeName="opacity" begin="-0.8695652173913043s" calcMode="linear" dur="1.4492753623188404s" fill="remove" keyTimes="0;1" repeatCount="indefinite" restart="always" values="1;0">
			</animate>
	</path>
</g>
<g transform="rotate(144 50 50)">
	<path class="st0" d="M58.8,100.2L58.8,100.2c1,0,1.8,0.2,1.8,0.5l0,0c0,0.3-0.8,0.5-1.8,0.5l0,0c-1,0-1.8-0.2-1.8-0.5l0,0
		C57,100.4,57.8,100.2,58.8,100.2z	">
<animate  accumulate="none" additive="replace" attributeName="opacity" begin="-0.7246376811594203s" calcMode="linear" dur="1.4492753623188404s" fill="remove" keyTimes="0;1" repeatCount="indefinite" restart="always" values="1;0">
			</animate>
	</path>
</g>
<g transform="rotate(180 50 50)">
	<path class="st1" d="M89.7,84.4L89.7,84.4c1,0,1.8,0.2,1.8,0.5l0,0c0,0.3-0.8,0.5-1.8,0.5l0,0c-1,0-1.8-0.2-1.8-0.5l0,0
		C87.9,84.7,88.7,84.4,89.7,84.4z	">
<animate  accumulate="none" additive="replace" attributeName="opacity" begin="-0.5797101449275363s" calcMode="linear" dur="1.4492753623188404s" fill="remove" keyTimes="0;1" repeatCount="indefinite" restart="always" values="1;0">
			</animate>
	</path>
</g>
<g transform="rotate(216 50 50)">
	<path class="st0" d="M105.5,53.5L105.5,53.5c1,0,1.8,0.2,1.8,0.5l0,0c0,0.3-0.8,0.5-1.8,0.5l0,0c-1,0-1.8-0.2-1.8-0.5l0,0
		C103.7,53.8,104.5,53.5,105.5,53.5z	">
<animate  accumulate="none" additive="replace" attributeName="opacity" begin="-0.43478260869565216s" calcMode="linear" dur="1.4492753623188404s" fill="remove" keyTimes="0;1" repeatCount="indefinite" restart="always" values="1;0">
			</animate>
	</path>
</g>
<g transform="rotate(252 50 50)">
	<path class="st1" d="M100,19.3L100,19.3c1,0,1.8,0.2,1.8,0.5l0,0c0,0.3-0.8,0.5-1.8,0.5l0,0c-1,0-1.8-0.2-1.8-0.5l0,0
		C98.3,19.5,99.1,19.3,100,19.3z	">
<animate  accumulate="none" additive="replace" attributeName="opacity" begin="-0.2898550724637681s" calcMode="linear" dur="1.4492753623188404s" fill="remove" keyTimes="0;1" repeatCount="indefinite" restart="always" values="1;0">
			</animate>
	</path>
</g>
<g transform="rotate(288 50 50)">
	<path class="st0" d="M75.5-5.3L75.5-5.3c1,0,1.8,0.2,1.8,0.5l0,0c0,0.3-0.8,0.5-1.8,0.5l0,0c-1,0-1.8-0.2-1.8-0.5l0,0
		C73.7-5,74.5-5.3,75.5-5.3z	">
<animate  accumulate="none" additive="replace" attributeName="opacity" begin="-0.14492753623188406s" calcMode="linear" dur="1.4492753623188404s" fill="remove" keyTimes="0;1" repeatCount="indefinite" restart="always" values="1;0">
			</animate>
	</path>
</g>
<g transform="rotate(324 50 50)">
	<path class="st1" d="M41.2-10.7L41.2-10.7c1,0,1.8,0.2,1.8,0.5l0,0c0,0.3-0.8,0.5-1.8,0.5l0,0c-1,0-1.8-0.2-1.8-0.5l0,0
		C39.5-10.5,40.3-10.7,41.2-10.7z	">
<animate  accumulate="none" additive="replace" attributeName="opacity" begin="0s" calcMode="linear" dur="1.4492753623188404s" fill="remove" keyTimes="0;1" repeatCount="indefinite" restart="always" values="1;0">
			</animate>
	</path>
</g>
</svg>
