<?xml version="1.0" encoding="utf-8"?>
<!-- Generator: Adobe Illustrator 24.1.2, SVG Export Plug-In . SVG Version: 6.00 Build 0)  -->
<svg version="1.1" id="Layer_1" xmlns="http://www.w3.org/2000/svg" xmlns:xlink="http://www.w3.org/1999/xlink" x="0px" y="0px"
	 viewBox="0 0 100 100" style="enable-background:new 0 0 100 100;" xml:space="preserve">
<style type="text/css">
	.st0{fill:#ED1C24;}
	.st1{fill:#FFA500;}
</style>
<g transform="rotate(0 50 50)">
	<path class="st0" d="M50,24.5L50,24.5c4.7,0,8.5,1.1,8.5,2.5l0,0c0,1.4-3.8,2.5-8.5,2.5l0,0c-4.7,0-8.5-1.1-8.5-2.5l0,0
		C41.5,25.6,45.3,24.5,50,24.5z	">
<animate  accumulate="none" additive="replace" attributeName="opacity" begin="-1.3043478260869565s" calcMode="linear" dur="1.4492753623188404s" fill="remove" keyTimes="0;1" repeatCount="indefinite" restart="always" values="1;0">
			</animate>
	</path>
</g>
<g transform="rotate(36 50 50)">
	<path class="st1" d="M50,24.5L50,24.5c4.7,0,8.5,1.1,8.5,2.5l0,0c0,1.4-3.8,2.5-8.5,2.5l0,0c-4.7,0-8.5-1.1-8.5-2.5l0,0
		C41.5,25.6,45.3,24.5,50,24.5z	">
<animate  accumulate="none" additive="replace" attributeName="opacity" begin="-1.1594202898550725s" calcMode="linear" dur="1.4492753623188404s" fill="remove" keyTimes="0;1" repeatCount="indefinite" restart="always" values="1;0">
			</animate>
	</path>
</g>
<g transform="rotate(72 50 50)">
	<path class="st0" d="M50,24.5L50,24.5c4.7,0,8.5,1.1,8.5,2.5l0,0c0,1.4-3.8,2.5-8.5,2.5l0,0c-4.7,0-8.5-1.1-8.5-2.5l0,0
		C41.5,25.6,45.3,24.5,50,24.5z	">
<animate  accumulate="none" additive="replace" attributeName="opacity" begin="-1.0144927536231882s" calcMode="linear" dur="1.4492753623188404s" fill="remove" keyTimes="0;1" repeatCount="indefinite" restart="always" values="1;0">
			</animate>
	</path>
</g>
<g transform="rotate(108 50 50)">
	<path class="st1" d="M50,24.5L50,24.5c4.7,0,8.5,1.1,8.5,2.5l0,0c0,1.4-3.8,2.5-8.5,2.5l0,0c-4.7,0-8.5-1.1-8.5-2.5l0,0
		C41.5,25.6,45.3,24.5,50,24.5z	">
<animate  accumulate="none" additive="replace" attributeName="opacity" begin="-0.8695652173913043s" calcMode="linear" dur="1.4492753623188404s" fill="remove" keyTimes="0;1" repeatCount="indefinite" restart="always" values="1;0">
			</animate>
	</path>
</g>
<g transform="rotate(144 50 50)">
	<path class="st0" d="M50,24.5L50,24.5c4.7,0,8.5,1.1,8.5,2.5l0,0c0,1.4-3.8,2.5-8.5,2.5l0,0c-4.7,0-8.5-1.1-8.5-2.5l0,0
		C41.5,25.6,45.3,24.5,50,24.5z	">
<animate  accumulate="none" additive="replace" attributeName="opacity" begin="-0.7246376811594203s" calcMode="linear" dur="1.4492753623188404s" fill="remove" keyTimes="0;1" repeatCount="indefinite" restart="always" values="1;0">
			</animate>
	</path>
</g>
<g transform="rotate(180 50 50)">
	<path class="st1" d="M50,24.5L50,24.5c4.7,0,8.5,1.1,8.5,2.5l0,0c0,1.4-3.8,2.5-8.5,2.5l0,0c-4.7,0-8.5-1.1-8.5-2.5l0,0
		C41.5,25.6,45.3,24.5,50,24.5z	">
<animate  accumulate="none" additive="replace" attributeName="opacity" begin="-0.5797101449275363s" calcMode="linear" dur="1.4492753623188404s" fill="remove" keyTimes="0;1" repeatCount="indefinite" restart="always" values="1;0">
			</animate>
	</path>
</g>
<g transform="rotate(216 50 50)">
	<path class="st0" d="M50,24.5L50,24.5c4.7,0,8.5,1.1,8.5,2.5l0,0c0,1.4-3.8,2.5-8.5,2.5l0,0c-4.7,0-8.5-1.1-8.5-2.5l0,0
		C41.5,25.6,45.3,24.5,50,24.5z	">
<animate  accumulate="none" additive="replace" attributeName="opacity" begin="-0.43478260869565216s" calcMode="linear" dur="1.4492753623188404s" fill="remove" keyTimes="0;1" repeatCount="indefinite" restart="always" values="1;0">
			</animate>
	</path>
</g>
<g transform="rotate(252 50 50)">
	<path class="st1" d="M50,24.5L50,24.5c4.7,0,8.5,1.1,8.5,2.5l0,0c0,1.4-3.8,2.5-8.5,2.5l0,0c-4.7,0-8.5-1.1-8.5-2.5l0,0
		C41.5,25.6,45.3,24.5,50,24.5z	">
<animate  accumulate="none" additive="replace" attributeName="opacity" begin="-0.2898550724637681s" calcMode="linear" dur="1.4492753623188404s" fill="remove" keyTimes="0;1" repeatCount="indefinite" restart="always" values="1;0">
			</animate>
	</path>
</g>
<g transform="rotate(288 50 50)">
	<path class="st0" d="M50,24.5L50,24.5c4.7,0,8.5,1.1,8.5,2.5l0,0c0,1.4-3.8,2.5-8.5,2.5l0,0c-4.7,0-8.5-1.1-8.5-2.5l0,0
		C41.5,25.6,45.3,24.5,50,24.5z	">
<animate  accumulate="none" additive="replace" attributeName="opacity" begin="-0.14492753623188406s" calcMode="linear" dur="1.4492753623188404s" fill="remove" keyTimes="0;1" repeatCount="indefinite" restart="always" values="1;0">
			</animate>
	</path>
</g>
<g transform="rotate(324 50 50)">
	<path class="st1" d="M50,24.5L50,24.5c4.7,0,8.5,1.1,8.5,2.5l0,0c0,1.4-3.8,2.5-8.5,2.5l0,0c-4.7,0-8.5-1.1-8.5-2.5l0,0
		C41.5,25.6,45.3,24.5,50,24.5z	">
<animate  accumulate="none" additive="replace" attributeName="opacity" begin="0s" calcMode="linear" dur="1.4492753623188404s" fill="remove" keyTimes="0;1" repeatCount="indefinite" restart="always" values="1;0">
			</animate>
	</path>
</g>
</svg>
